<svg xmlns="http://www.w3.org/2000/svg" width="137" height="36" viewBox="0 0 137 36" fill="none"><path d="M13.1387 23.3231C12.5392 23.0203 12.0277 22.5963 11.6206 22.0676C11.9891 22.6236 12.5171 23.0644 13.1387 23.3231Z" fill="white"></path><path d="M13.1388 23.3231C12.5174 23.0644 11.9892 22.6237 11.621 22.0677C11.0433 21.3186 10.686 20.3933 10.686 19.3744V7.95801C4.54825 9.50543 0 15.0568 0 21.6819C0 29.5077 6.86911 35.8522 14.1507 35.8522C21.2399 35.8522 27.097 30.6203 28.1255 23.8077H15.1133C14.4038 23.8077 13.7381 23.6204 13.1388 23.3231Z" fill="white"></path><path d="M17.2249 0V17.2543H28.4224V8.48664V0H17.2249Z" fill="white"></path><path d="M66.0185 27.415C63.3291 27.415 61.4537 25.5151 61.1787 22.5521H73.7729L73.8005 22.3263C73.8333 22.0454 73.8664 21.4672 73.8664 21.0595C73.8664 18.9338 73.113 16.9788 71.7435 15.5635C70.2916 14.0599 68.2898 13.2668 65.9578 13.2668C61.2445 13.2668 57.9502 16.7751 57.9502 21.7921C57.9502 26.7322 61.3435 30.3172 66.024 30.3172C69.4337 30.3172 72.0022 28.7863 73.0911 26.1704L70.2366 24.9256C69.6537 26.5118 68.1468 27.415 66.0185 27.415ZM65.9578 16.0316C68.4052 16.0316 70.1046 17.4579 70.4622 19.7819H61.3821C61.9707 17.4248 63.6646 16.0316 65.9578 16.0316Z" fill="white"></path><path d="M99.1486 13.2559C94.5617 13.2559 91.2124 16.7198 91.097 21.5276H91.0916V35.1417H94.2539V28.6981C95.5847 29.7225 97.2622 30.3062 99.1486 30.3062C103.834 30.3062 107.233 26.721 107.233 21.7812C107.233 16.8411 103.834 13.2559 99.1486 13.2559ZM99.1486 27.3818C96.2611 27.3818 94.3252 25.135 94.3252 21.7866C94.3252 18.4382 96.2666 16.1912 99.1486 16.1912C102.036 16.1912 103.972 18.4382 103.972 21.7866C103.972 25.135 102.03 27.3818 99.1486 27.3818Z" fill="white"></path><path d="M52.5497 14.8695C51.2189 13.845 49.5414 13.2614 47.655 13.2614C42.9693 13.2614 39.5706 16.8466 39.5706 21.7867C39.5706 26.7265 42.9693 30.3117 47.655 30.3117C52.2416 30.3117 55.5909 26.8477 55.7066 22.0399H55.712V8.42603H52.5497V14.8695ZM47.655 27.3818C44.7677 27.3818 42.8318 25.1351 42.8318 21.7867C42.8318 18.4382 44.7732 16.1912 47.655 16.1912C50.5422 16.1912 52.4781 18.4382 52.4781 21.7867C52.4781 25.1351 50.5422 27.3818 47.655 27.3818Z" fill="white"></path><path d="M135.073 13.3714C133.879 13.3714 131.608 13.5863 129.744 15.0403C127.967 16.428 127.065 18.5097 127.065 21.2249V30.0639H130.238V21.2194C130.238 18.0969 131.811 16.5767 135.04 16.5767H136.695V13.366H135.073V13.3714Z" fill="white"></path><path d="M89.4363 13.5149H85.6359L81.8522 18.8347L77.9361 13.5149H74.2735L80.1416 21.5332L73.894 30.0585H77.5897L81.8576 24.2207L86.1198 30.0585H89.8157L83.5679 21.5332L89.4363 13.5149Z" fill="white"></path><path d="M117.078 27.415C114.388 27.415 112.513 25.5151 112.238 22.5521H124.832L124.86 22.3263C124.893 22.0454 124.925 21.4672 124.925 21.0595C124.925 18.9338 124.172 16.9788 122.803 15.5635C121.351 14.0599 119.349 13.2668 117.017 13.2668C112.304 13.2668 109.01 16.7751 109.01 21.7921C109.01 26.7322 112.403 30.3172 117.083 30.3172C120.493 30.3172 123.061 28.7863 124.15 26.1704L121.296 24.9256C120.707 26.5118 119.2 27.415 117.078 27.415ZM117.017 16.0316C119.464 16.0316 121.164 17.4579 121.521 19.7819H112.441C113.03 17.4248 114.718 16.0316 117.017 16.0316Z" fill="white"></path></svg>