<svg width="223" height="72" viewBox="0 0 223 72" fill="none" xmlns="http://www.w3.org/2000/svg">
<path d="M96.1175 23.7185C97.3031 23.7185 98.3997 23.9871 99.4074 24.4944C100.415 25.0315 101.304 25.7178 102.045 26.5534C102.786 27.4486 103.349 28.4632 103.764 29.5971C104.15 30.7311 104.357 31.9545 104.357 33.178V42.6673C104.357 43.1448 104.209 43.5327 103.883 43.8609C103.557 44.1892 103.171 44.3384 102.697 44.3384C102.223 44.3384 101.838 44.1892 101.512 43.8609C101.186 43.5327 101.038 43.1448 101.038 42.6673V33.178C101.038 31.4472 100.534 29.9552 99.526 28.7019C98.5775 27.5679 97.4216 27.001 96.1175 27.001C95.4951 27.001 94.8727 27.1502 94.3096 27.4486C93.7465 27.747 93.213 28.1648 92.7388 28.7019C92.2349 29.2987 91.8496 29.985 91.5829 30.7609C91.3161 31.5069 91.1679 32.3424 91.1679 33.178V42.6673C91.1679 43.1448 91.0197 43.5327 90.6937 43.8609C90.3677 44.1892 89.9824 44.3384 89.5082 44.3384C89.0339 44.3384 88.6486 44.1892 88.3226 43.8609C87.9966 43.5327 87.8484 43.1448 87.8484 42.6673V33.178C87.8484 31.4472 87.3446 29.9552 86.3368 28.7019C85.3884 27.5679 84.2325 27.001 82.9284 27.001C82.306 27.001 81.6836 27.1502 81.1205 27.4486C80.5573 27.747 80.0238 28.1648 79.5496 28.7019C78.5419 29.9552 78.0381 31.4472 78.0381 33.178V42.6673C78.0381 43.1448 77.8899 43.5327 77.5639 43.8609C77.2378 44.1892 76.8525 44.3384 76.3783 44.3384C75.9041 44.3384 75.5188 44.1892 75.1928 43.8609C74.8668 43.5327 74.7186 43.1448 74.7186 42.6673V33.178C74.7186 31.9247 74.926 30.7311 75.3113 29.5971C75.6966 28.4632 76.2894 27.4486 77.0304 26.5534C77.801 25.6581 78.6605 24.9718 79.6386 24.4944C80.6759 23.9572 81.7725 23.7185 82.9284 23.7185C84.114 23.7185 85.2106 23.9871 86.2776 24.4944C87.226 25.0017 88.1152 25.688 88.8858 26.5534C89.0339 26.7026 89.1525 26.8518 89.2414 27.001C89.3303 27.18 89.4489 27.3292 89.5378 27.4486C89.6564 27.2994 89.7453 27.1502 89.8638 27.001C89.9824 26.8219 90.1009 26.6727 90.2491 26.5534C91.0197 25.6581 91.8792 24.9718 92.8573 24.4944C93.8354 23.9572 94.932 23.7185 96.1175 23.7185Z" fill="#686969"/>
<path d="M116.479 44.0699C115.175 44.0699 113.901 43.8311 112.745 43.3537C111.559 42.8762 110.522 42.1601 109.573 41.2648C108.625 40.3398 107.854 39.2655 107.321 38.0719C106.787 36.8783 106.491 35.5951 106.491 34.2523C106.461 32.9095 106.698 31.6263 107.173 30.373C107.647 29.1495 108.358 28.0454 109.307 27.0905C110.225 26.1356 111.263 25.3896 112.478 24.8525C113.693 24.3154 114.968 24.0468 116.301 23.9871C117.605 23.9573 118.91 24.196 120.125 24.6734C121.369 25.1509 122.466 25.8671 123.415 26.7921L123.444 26.822C123.741 27.1801 123.889 27.568 123.889 27.9858C123.889 28.4035 123.741 28.7915 123.444 29.1495L113.219 39.8325C113.841 40.1906 114.523 40.4293 115.234 40.5785C115.946 40.7277 116.657 40.7277 117.368 40.6083C118.08 40.489 118.761 40.2801 119.413 39.9518C120.065 39.6236 120.688 39.176 121.221 38.6389C121.547 38.3106 121.962 38.1316 122.407 38.1316C122.881 38.1316 123.266 38.2509 123.592 38.5792C123.918 38.9074 124.096 39.3252 124.096 39.7728C124.096 40.2204 123.948 40.6382 123.652 40.9664C122.733 41.9213 121.666 42.6673 120.451 43.2045C119.265 43.7416 117.991 44.0102 116.657 44.04C116.598 44.04 116.568 44.04 116.538 44.0699C116.538 44.0699 116.509 44.0699 116.479 44.0699ZM116.479 27.2696C115.59 27.2696 114.73 27.4486 113.901 27.7769C113.071 28.135 112.33 28.6422 111.648 29.3286C111.085 29.8956 110.67 30.4924 110.374 31.2085C110.077 31.8949 109.899 32.6111 109.811 33.3272C109.751 34.0434 109.781 34.7596 109.959 35.4758C110.137 36.1919 110.403 36.8783 110.789 37.5049L119.739 28.135C118.702 27.568 117.605 27.2696 116.479 27.2696Z" fill="#686969"/>
<path d="M135.566 44.3682C132.899 44.3682 130.617 43.4432 128.72 41.5931C127.801 40.6978 127.119 39.6833 126.616 38.5195C126.112 37.3557 125.875 36.1322 125.875 34.8192C125.875 33.5361 126.112 32.3425 126.616 31.1787C127.119 30.0149 127.801 29.0003 128.72 28.1051C130.617 26.255 132.899 25.3299 135.566 25.3299C136.752 25.3299 137.878 25.5388 138.975 25.9267C140.071 26.3147 141.05 26.9115 141.939 27.6873V21.2716C141.939 20.7941 142.087 20.4062 142.413 20.078C142.739 19.7497 143.124 19.6005 143.598 19.6005C144.073 19.6005 144.458 19.7497 144.784 20.078C145.11 20.4062 145.258 20.7941 145.258 21.2716V34.8192C145.258 36.1322 145.021 37.3557 144.517 38.5195C144.013 39.6833 143.332 40.6978 142.413 41.5931C141.494 42.5181 140.427 43.2045 139.271 43.6521C138.086 44.1295 136.871 44.3682 135.566 44.3682ZM135.566 28.6422C134.677 28.6422 133.877 28.8213 133.106 29.1495C132.336 29.4778 131.654 29.9254 131.091 30.4625C130.528 31.0295 130.054 31.6561 129.698 32.4021C129.342 33.1482 129.194 33.9539 129.194 34.8192C129.194 35.6846 129.372 36.4903 129.698 37.2363C130.054 37.9823 130.498 38.6388 131.091 39.2058C131.654 39.7728 132.336 40.1906 133.106 40.5188C133.877 40.847 134.707 41.0261 135.566 41.0261C136.456 41.0261 137.256 40.847 138.026 40.5188C138.797 40.1906 139.479 39.7429 140.042 39.2058C140.605 38.6388 141.079 37.9823 141.435 37.2363C141.79 36.4903 141.939 35.6548 141.939 34.8192C141.939 33.9539 141.761 33.1482 141.435 32.4021C141.079 31.6561 140.635 30.9996 140.042 30.4625C139.479 29.8955 138.797 29.4778 138.026 29.1495C137.285 28.8213 136.456 28.6422 135.566 28.6422Z" fill="#686969"/>
<path d="M148.993 50.8138C148.518 50.8138 148.133 50.6646 147.807 50.3363C147.481 50.0081 147.333 49.6202 147.333 49.1427V34.2821V34.0434C147.333 32.6707 147.6 31.3279 148.103 30.0746C148.607 28.8213 149.348 27.7171 150.297 26.7324C151.245 25.7775 152.371 25.0315 153.616 24.4944C154.861 23.9572 156.165 23.7185 157.558 23.7185C158.951 23.7185 160.285 23.9871 161.5 24.4944C162.745 25.0315 163.841 25.7775 164.79 26.7324C165.738 27.6873 166.479 28.8213 167.013 30.0746C167.546 31.3279 167.783 32.6408 167.783 34.0434C167.783 35.416 167.517 36.7589 167.013 38.0122C166.479 39.2655 165.738 40.3696 164.79 41.3543C163.841 42.3092 162.745 43.0552 161.5 43.5924C160.255 44.1295 158.951 44.3682 157.558 44.3682C156.254 44.3682 155.009 44.1295 153.824 43.652C152.668 43.1746 151.601 42.5181 150.623 41.6229V49.1725C150.623 49.65 150.474 50.0379 150.148 50.3662C149.852 50.6646 149.467 50.8138 148.993 50.8138ZM150.652 34.2522C150.682 35.1773 150.889 36.0725 151.245 36.9081C151.63 37.7436 152.105 38.4598 152.727 39.0566C153.349 39.6534 154.061 40.1607 154.92 40.5188C155.75 40.8769 156.639 41.0559 157.588 41.0559C158.536 41.0559 159.455 40.8769 160.314 40.4889C161.174 40.101 161.915 39.6236 162.537 38.9671C163.16 38.3404 163.664 37.5944 164.019 36.7589C164.375 35.9233 164.553 34.9983 164.553 34.0434C164.553 33.0885 164.375 32.1634 164.019 31.3279C163.664 30.4923 163.16 29.7463 162.537 29.1197C161.915 28.493 161.174 27.9857 160.314 27.5978C159.455 27.2099 158.566 27.0308 157.588 27.0308C156.639 27.0308 155.72 27.2099 154.92 27.5679C154.09 27.926 153.379 28.4333 152.727 29.06C152.105 29.6866 151.601 30.4326 151.215 31.2682C150.83 32.1037 150.652 32.9989 150.652 33.9538V34.0434V34.2522Z" fill="#686969"/>
<path d="M188.649 44.3981C188.175 44.3981 187.789 44.2489 187.463 43.9206C187.137 43.5924 186.989 43.2045 186.989 42.727V41.7721C186.041 42.6375 184.974 43.294 183.788 43.7118C182.632 44.1594 181.387 44.3682 180.113 44.3682C178.75 44.3682 177.446 44.1295 176.201 43.6222C174.956 43.1149 173.859 42.3988 172.911 41.4737C171.962 40.5188 171.221 39.4147 170.688 38.1912C170.154 36.9678 169.917 35.6846 169.917 34.3418C169.917 32.999 170.184 31.7158 170.688 30.4924C171.221 29.2689 171.962 28.1946 172.911 27.2099C173.859 26.255 174.956 25.509 176.201 25.0017C177.446 24.4944 178.75 24.2557 180.113 24.2557C181.476 24.2557 182.78 24.4944 184.025 25.0017C185.27 25.509 186.367 26.2252 187.315 27.2099C188.264 28.1648 189.005 29.2689 189.538 30.4924C190.072 31.7158 190.309 32.999 190.309 34.3418C190.309 34.491 190.309 34.6402 190.279 34.7894C190.279 34.9386 190.249 35.0878 190.249 35.2669V42.727C190.249 43.2045 190.101 43.5924 189.775 43.9206C189.508 44.2489 189.123 44.3981 188.649 44.3981ZM180.143 27.5978C179.194 27.5978 178.275 27.7769 177.446 28.135C176.616 28.493 175.875 28.9705 175.252 29.5971C174.63 30.194 174.126 30.9101 173.77 31.7457C173.385 32.5514 173.207 33.4466 173.207 34.3716C173.207 35.2967 173.385 36.1621 173.77 36.9678C174.156 37.7735 174.63 38.4896 175.252 39.1163C175.875 39.7131 176.586 40.2204 177.446 40.5785C178.275 40.9366 179.194 41.1156 180.143 41.1156C181.032 41.1156 181.862 40.9664 182.662 40.668C183.462 40.3696 184.173 39.9518 184.796 39.4147C185.418 38.8776 185.922 38.2509 186.307 37.5049C186.693 36.7589 186.96 35.983 187.019 35.1475V33.745V33.6555C186.93 32.8199 186.693 32.0441 186.307 31.2981C185.922 30.552 185.389 29.9254 184.796 29.3883C184.173 28.8511 183.462 28.4334 182.662 28.1051C181.832 27.7769 181.002 27.5978 180.143 27.5978Z" fill="#686969"/>
<path d="M200.682 44.4875H200.653H194.102C193.628 44.4875 193.243 44.3383 192.917 44.01C192.591 43.6818 192.443 43.2938 192.443 42.8164C192.443 42.3389 192.591 41.951 192.917 41.6228C193.243 41.2945 193.628 41.1453 194.102 41.1453H200.653H200.682C201.393 41.1453 202.016 40.8767 202.549 40.3695C203.083 39.8323 203.35 39.2057 203.35 38.4597C203.35 37.7435 203.113 37.1168 202.638 36.6095C202.164 36.1022 201.571 35.8038 200.86 35.774C200.801 35.774 200.771 35.774 200.771 35.8038C200.771 35.8038 200.741 35.8337 200.712 35.8337H198.074C197.955 35.8337 197.837 35.8038 197.659 35.7442C196.918 35.6546 196.236 35.4458 195.614 35.0877C194.992 34.7296 194.428 34.3118 193.954 33.7747C193.48 33.2375 193.124 32.6407 192.858 31.9544C192.591 31.2681 192.472 30.5519 192.472 29.776C192.472 28.9405 192.621 28.1646 192.947 27.4186C193.273 26.6726 193.688 26.046 194.221 25.5088C194.754 24.9717 195.377 24.5539 196.118 24.2257C196.859 23.8974 197.629 23.7482 198.459 23.7482H205.039C205.513 23.7482 205.899 23.8974 206.225 24.2257C206.551 24.5539 206.699 24.9419 206.699 25.4193C206.699 25.8968 206.551 26.2847 206.225 26.6129C205.899 26.9412 205.513 27.0904 205.039 27.0904H198.459C197.718 27.0904 197.096 27.3589 196.562 27.8961C196.029 28.4332 195.792 29.0599 195.792 29.8059C195.792 30.5519 196.059 31.2084 196.562 31.7455C197.096 32.2826 197.718 32.5512 198.459 32.5512H200.475C200.534 32.5214 200.623 32.5214 200.712 32.5214C201.542 32.5214 202.312 32.6706 203.024 32.9988C203.765 33.3271 204.387 33.7448 204.92 34.282C205.454 34.8191 205.869 35.4458 206.195 36.1918C206.521 36.9079 206.669 37.7136 206.669 38.5193C206.669 39.3549 206.521 40.1307 206.195 40.8469C205.869 41.5631 205.454 42.2196 204.92 42.7567C204.387 43.2938 203.765 43.7116 203.024 44.0398C202.283 44.3084 201.512 44.4875 200.682 44.4875Z" fill="#686969"/>
<path d="M216.983 44.4875H216.954H210.404C209.929 44.4875 209.544 44.3383 209.218 44.01C208.892 43.6818 208.744 43.2938 208.744 42.8164C208.744 42.3389 208.892 41.951 209.218 41.6228C209.544 41.2945 209.929 41.1453 210.404 41.1453H216.954H216.983C217.695 41.1453 218.317 40.8767 218.851 40.3695C219.384 39.8323 219.651 39.2057 219.651 38.4597C219.651 37.7435 219.414 37.1168 218.939 36.6095C218.465 36.1022 217.872 35.8038 217.161 35.774C217.102 35.774 217.072 35.774 217.072 35.8038C217.072 35.8038 217.043 35.8337 217.013 35.8337H214.375C214.257 35.8337 214.138 35.8038 213.96 35.7442C213.219 35.6546 212.538 35.4458 211.915 35.0877C211.293 34.7296 210.73 34.3118 210.255 33.7747C209.781 33.2375 209.425 32.6407 209.159 31.9544C208.892 31.2681 208.773 30.5519 208.773 29.776C208.773 28.9405 208.922 28.1646 209.248 27.4186C209.574 26.6726 209.989 26.046 210.522 25.5088C211.056 24.9717 211.678 24.5539 212.419 24.2257C213.16 23.8974 213.931 23.7482 214.76 23.7482H221.34C221.814 23.7482 222.2 23.8974 222.526 24.2257C222.852 24.5539 223 24.9419 223 25.4193C223 25.8968 222.852 26.2847 222.526 26.6129C222.2 26.9412 221.814 27.0904 221.34 27.0904H214.76C214.019 27.0904 213.397 27.3589 212.864 27.8961C212.33 28.4332 212.093 29.0599 212.093 29.8059C212.093 30.5519 212.36 31.2084 212.864 31.7455C213.397 32.2826 214.019 32.5512 214.76 32.5512H216.776C216.835 32.5214 216.924 32.5214 217.013 32.5214C217.843 32.5214 218.613 32.6706 219.325 32.9988C220.066 33.3271 220.688 33.7448 221.222 34.282C221.755 34.8191 222.17 35.4458 222.496 36.1918C222.822 36.9079 222.97 37.7136 222.97 38.5193C222.97 39.3549 222.822 40.1307 222.496 40.8469C222.17 41.5631 221.755 42.2196 221.222 42.7567C220.688 43.2938 220.066 43.7116 219.325 44.0398C218.584 44.3084 217.813 44.4875 216.983 44.4875Z" fill="#686969"/>
<path d="M36.9295 12.4682C36.9295 12.4682 43.0054 16.616 51.6895 47.71C53.616 54.6628 55.009 59.1986 57.7061 62.7496C57.7061 62.7496 61.648 61.7052 60.7292 52.2756C59.7808 42.8758 63.8116 35.714 63.8116 35.714C63.8116 35.714 58.3581 12.7069 57.4986 11.2447C56.6095 9.87207 54.1495 3.39665 46.6509 3.00873C39.1524 2.6208 36.9295 12.4682 36.9295 12.4682Z" fill="url(#paint0_linear)"/>
<path d="M36.9295 12.4682C36.9295 12.4682 43.035 16.616 51.6895 47.7099C53.616 54.633 55.009 59.1986 57.7061 62.7496C57.7061 62.7496 63.1003 64.182 62.1815 54.7822C61.233 45.3824 63.782 35.7439 63.782 35.7439C63.7523 35.8931 58.6841 14.1691 57.4393 11.2447C56.5502 9.87207 54.1495 3.39665 46.6509 3.00873C39.1524 2.6208 36.9295 12.4682 36.9295 12.4682Z" fill="url(#paint1_linear)"/>
<path d="M8.38771 56.0656C3.43808 62.541 4.92 71.2544 4.92 71.2544C5.39422 63.7048 23.8886 72.8658 44.3392 69.464C59.8994 67.1066 62.7743 60.9594 64.6712 55.2599C66.983 48.2772 63.2189 33.3569 63.2189 33.3569C59.5141 65.0774 16.805 44.1592 8.38771 56.0656Z" fill="url(#paint2_linear)"/>
<path d="M8.38771 56.0656C3.43808 62.541 4.92 71.2544 4.92 71.2544C5.39422 63.7048 23.8886 72.8658 44.3392 69.464C59.8994 67.1066 62.7743 60.9594 64.6712 55.2599C66.983 48.2772 63.2189 33.3569 63.2189 33.3569C59.5141 65.0774 16.805 44.1592 8.38771 56.0656Z" fill="url(#paint3_linear)"/>
<path d="M0 69.9116C0 69.9116 18.1684 79.7888 31.5946 48.5158C45.9693 15.0048 55.9575 4.67996 59.0399 16.5267C59.0399 16.5267 56.7281 0.26355 42.9462 0.26355C33.9657 0.26355 29.2828 8.32052 24.7778 17.4219C24.7778 17.4219 12.2407 48.2174 0 69.9116Z" fill="url(#paint4_linear)"/>
<defs>
<linearGradient id="paint0_linear" x1="48.6436" y1="18.5618" x2="59.3947" y2="40.9861" gradientUnits="userSpaceOnUse">
<stop offset="0.016226" stop-color="#EA5390"/>
<stop offset="0.3055" stop-color="#EC5E84"/>
<stop offset="0.6024" stop-color="#EC6777"/>
<stop offset="0.8446" stop-color="#ED6C6E"/>
<stop offset="1" stop-color="#ED6D6A"/>
</linearGradient>
<linearGradient id="paint1_linear" x1="38.4758" y1="13.5779" x2="77.7059" y2="60.3982" gradientUnits="userSpaceOnUse">
<stop offset="0.1261" stop-color="#21284B"/>
<stop offset="0.1603" stop-color="#302A53" stop-opacity="0.9289"/>
<stop offset="0.246" stop-color="#4F2E66" stop-opacity="0.751"/>
<stop offset="0.3333" stop-color="#693075" stop-opacity="0.5696"/>
<stop offset="0.4218" stop-color="#7D3180" stop-opacity="0.3858"/>
<stop offset="0.5122" stop-color="#8A3086" stop-opacity="0.1979"/>
<stop offset="0.6074" stop-color="#8E3088" stop-opacity="0"/>
</linearGradient>
<linearGradient id="paint2_linear" x1="58.3411" y1="51.4301" x2="7.80171" y2="53.5363" gradientUnits="userSpaceOnUse">
<stop offset="0.016226" stop-color="#E7197D"/>
<stop offset="0.1959" stop-color="#C11F7A"/>
<stop offset="0.4097" stop-color="#962476"/>
<stop offset="0.6049" stop-color="#702673"/>
<stop offset="0.7745" stop-color="#552771"/>
<stop offset="0.9119" stop-color="#44276F"/>
<stop offset="1" stop-color="#3D276F"/>
</linearGradient>
<linearGradient id="paint3_linear" x1="30.7099" y1="49.2732" x2="47.4684" y2="64.1474" gradientUnits="userSpaceOnUse">
<stop stop-color="#21284B"/>
<stop offset="0.0711209" stop-color="#302A53" stop-opacity="0.9289"/>
<stop offset="0.249" stop-color="#4F2E66" stop-opacity="0.751"/>
<stop offset="0.4304" stop-color="#693075" stop-opacity="0.5696"/>
<stop offset="0.6142" stop-color="#7D3180" stop-opacity="0.3858"/>
<stop offset="0.8021" stop-color="#8A3086" stop-opacity="0.1979"/>
<stop offset="1" stop-color="#8E3088" stop-opacity="0"/>
</linearGradient>
<linearGradient id="paint4_linear" x1="57.6974" y1="-7.99989" x2="22.6107" y2="45.3764" gradientUnits="userSpaceOnUse">
<stop offset="0.0604796" stop-color="#302D75"/>
<stop offset="0.1128" stop-color="#31337A"/>
<stop offset="0.2078" stop-color="#34448D"/>
<stop offset="0.3143" stop-color="#3360AA"/>
<stop offset="0.9323" stop-color="#37BFF0"/>
</linearGradient>
</defs>
</svg>
